<svg width="16" height="17" viewBox="0 0 16 17" fill="none" xmlns="http://www.w3.org/2000/svg">
<path d="M8.00078 1.29688C4.02638 1.29688 0.800781 4.52248 0.800781 8.49688C0.800781 12.4713 4.02638 15.6969 8.00078 15.6969C11.9752 15.6969 15.2008 12.4713 15.2008 8.49688C15.2008 4.52248 11.9752 1.29688 8.00078 1.29688ZM8.00078 12.8169C7.47278 12.8169 7.04078 12.3849 7.04078 11.8569C7.04078 11.3289 7.47278 10.8969 8.00078 10.8969C8.52878 10.8969 8.96078 11.3289 8.96078 11.8569C8.96078 12.3849 8.52878 12.8169 8.00078 12.8169ZM9.09998 5.37208L8.77838 9.22168C8.74478 9.62488 8.40878 9.93688 8.00078 9.93688C7.59278 9.93688 7.25678 9.62488 7.22318 9.22168L6.90158 5.37208C6.84878 4.72888 7.35278 4.17688 8.00078 4.17688C8.14576 4.17688 8.28932 4.20543 8.42326 4.26091C8.55721 4.31639 8.67891 4.39771 8.78143 4.50023C8.88394 4.60275 8.96526 4.72445 9.02075 4.85839C9.07623 4.99234 9.10478 5.1359 9.10478 5.28088C9.10478 5.30968 9.10478 5.34328 9.09998 5.37208Z" fill="#576972"/>
<path d="M7.03558 11.8441C7.03558 12.3721 7.46758 12.8041 7.99558 12.8041C8.52358 12.8041 8.95558 12.3721 8.95558 11.8441C8.95558 11.3161 8.52358 10.8841 7.99558 10.8841C7.46758 10.8841 7.03558 11.3161 7.03558 11.8441Z" fill="white"/>
<path d="M8.77318 9.20886L9.09478 5.35926C9.09958 5.33047 9.09958 5.29687 9.09958 5.26807V5.26806C9.09958 5.12308 9.07102 4.97952 9.01554 4.84558C8.96006 4.71164 8.87874 4.58993 8.77622 4.48742C8.67371 4.3849 8.552 4.30358 8.41806 4.2481C8.28412 4.19262 8.14056 4.16406 7.99558 4.16406C7.34758 4.16406 6.84358 4.71606 6.89638 5.35926L7.21798 9.20886C7.25158 9.61206 7.58758 9.92406 7.99558 9.92406C8.40358 9.92406 8.73958 9.61206 8.77318 9.20886Z" fill="white"/>
</svg>
